PathFileType	4	(X/Y/Z)	C:\Documents and Settings\rtobon\Desktop\NewMocap\New\NoT\ActorF_TPose.trc
DataRate	CameraRate	NumFrames	NumMarkers	Units	OrigDataRate	OrigDataStartFrame	OrigNumFrames
120.00	120.00	       4	49	mm	120.00	33	       260
Frame#	Time	Root			LtFtHip			LtBkHip			RtFtHip			RtBkHip			Spine1			Spine2			Spine3			SpineOffsetLow			SpineOffsetHigh			LtCtChest			RtCtChest			LtChest			RtChest			LtShoulder			LtBicep			LtElbow			LtForeArm			LtWrist			LtPinky			LtThumb			LtMiddFing			RtShoulder			RtBicep			RtElbow			RtForeArm			RtWrist			RtPinky			RtThumb			RtMiddFing			LtThigh			LtKnee			LtCalf			LtAnkle			LtHeel			LtBall			LtToe			RtThigh			RtKnee			RtCalf			RtAnkle			RtHeel			RtBall			RtToe			TopHead			LfFtHead			LtBkHead			RtFtHead			RtBkHead			
		X1	Y1	Z1	X2	Y2	Z2	X3	Y3	Z3	X4	Y4	Z4	X5	Y5	Z5	X6	Y6	Z6	X7	Y7	Z7	X8	Y8	Z8	X9	Y9	Z9	X10	Y10	Z10	X11	Y11	Z11	X12	Y12	Z12	X13	Y13	Z13	X14	Y14	Z14	X15	Y15	Z15	X16	Y16	Z16	X17	Y17	Z17	X18	Y18	Z18	X19	Y19	Z19	X20	Y20	Z20	X21	Y21	Z21	X22	Y22	Z22	X23	Y23	Z23	X24	Y24	Z24	X25	Y25	Z25	X26	Y26	Z26	X27	Y27	Z27	X28	Y28	Z28	X29	Y29	Z29	X30	Y30	Z30	X31	Y31	Z31	X32	Y32	Z32	X33	Y33	Z33	X34	Y34	Z34	X35	Y35	Z35	X36	Y36	Z36	X37	Y37	Z37	X38	Y38	Z38	X39	Y39	Z39	X40	Y40	Z40	X41	Y41	Z41	X42	Y42	Z42	X43	Y43	Z43	X44	Y44	Z44	X45	Y45	Z45	X46	Y46	Z46	X47	Y47	Z47	X48	Y48	Z48	X49	Y49	Z49	

33	0.267	15.30177	1103.39612	1283.05786	108.27306	1009.75525	1560.92041	111.00951	1070.05298	1283.35400	-161.51054	1031.23914	1528.49548	-112.56183	1070.32886	1266.90735	21.04333	1278.33398	1276.65466	22.97291	1412.57739	1283.02124	13.93255	1531.19666	1337.10022	-64.51994	1199.49341	1276.04053	151.30411	1356.08423	1287.45935	22.59116	1376.74487	1593.81348	-26.42658	1402.41687	1581.44128	105.06344	1450.78674	1567.75037	-96.70364	1452.62280	1558.41077	171.50085	1543.84998	1401.84863	343.17798	1519.37878	1439.88074	495.95361	1497.65540	1411.22937	603.67969	1490.34436	1463.65381	739.16302	1472.71948	1487.24243	795.69037	1422.65588	1452.16394	763.86298	1450.48608	1561.29871	796.02417	1470.75964	1493.33191	-160.44035	1556.98181	1432.14636	-338.88626	1512.10217	1410.58472	-441.75812	1498.19873	1395.74756	-591.25409	1486.19751	1439.02576	-707.11218	1473.53638	1451.29749	-774.07117	1427.21045	1428.82446	-751.05505	1470.72290	1527.69653	-780.68018	1478.07434	1462.81531	213.75052	737.75043	1464.03650	202.77861	578.21124	1413.96899	225.42015	336.77679	1346.50281	200.83717	147.68927	1338.73743	133.25522	51.06041	1269.94983	222.47131	54.98852	1444.03003	173.29378	46.42921	1542.68555	-255.09962	777.64539	1451.07056	-247.81480	551.81329	1427.01343	-270.12549	403.48721	1370.53552	-247.74930	151.26103	1349.36389	-174.20680	51.37632	1263.15210	-277.11044	53.61060	1437.36987	-222.34343	54.65223	1528.74939	-10.25352	1780.71497	1470.38855	56.95577	1712.14099	1598.08289	78.00035	1657.61853	1419.06360	-64.93273	1699.33142	1584.51074	-70.75903	1638.47717	1410.71387	
34	0.275	15.30177	1103.39612	1283.05786	108.30811	1009.79938	1560.93591	110.95625	1070.03625	1283.43799	-161.42731	1031.06653	1528.65833	-112.47608	1070.28516	1267.19104	21.04472	1278.21716	1276.62256	22.99873	1412.63574	1283.12073	13.89717	1531.21130	1337.13257	-64.60952	1199.43018	1276.16968	151.30656	1356.22595	1287.49597	22.40792	1376.66064	1593.83386	-26.51561	1402.56653	1581.58801	105.00076	1450.82568	1567.81226	-96.80981	1452.60071	1558.47363	171.27211	1543.70093	1401.83044	343.21115	1519.38892	1440.09033	496.01425	1497.57336	1411.37720	603.68561	1490.15320	1463.74182	739.05768	1472.57275	1487.38379	795.73615	1422.49902	1452.21802	763.93365	1450.41089	1561.50024	795.87671	1470.55347	1493.44177	-160.53302	1557.02795	1432.12732	-338.94595	1511.93152	1410.76636	-441.75562	1498.13806	1395.90125	-591.28046	1485.72388	1438.99927	-707.43701	1473.10303	1451.19275	-774.20355	1427.00732	1429.02954	-751.12781	1470.42798	1527.81323	-780.76752	1477.94177	1462.90247	213.76447	737.89380	1464.32007	202.90871	578.43567	1414.50659	225.50885	336.75162	1346.60205	200.83717	147.68927	1338.73743	133.15511	51.08605	1269.93091	222.52571	54.95928	1444.03418	173.29378	46.42921	1542.68555	-255.43140	777.72345	1451.59961	-247.81392	551.80719	1427.05176	-270.31302	403.45300	1371.04138	-247.95764	151.74210	1349.65369	-174.09416	51.39214	1263.20959	-277.11044	53.61060	1437.36987	-222.34343	54.65223	1528.74939	-10.27405	1780.75378	1470.61658	56.78555	1712.11279	1598.19153	77.94097	1657.56079	1419.15198	-65.03596	1699.35046	1584.56982	-70.58604	1638.44556	1410.82471	
35	0.283	15.20926	1103.35913	1283.29858	108.13078	1009.79596	1561.04102	110.89878	1070.04236	1283.87451	-161.46838	1031.15381	1529.00427	-112.56248	1070.17834	1267.48633	21.30605	1278.21985	1276.88110	22.92066	1412.49316	1283.44299	13.50180	1531.15295	1337.09924	-64.76011	1199.13477	1276.29041	151.22510	1356.19910	1287.65491	22.27995	1376.67883	1593.93799	-26.55400	1402.49695	1581.69702	104.97086	1450.79102	1567.83350	-96.87370	1452.64429	1558.53711	171.20457	1543.72278	1401.92456	343.09232	1519.33704	1440.25464	495.98227	1497.41101	1411.58850	603.73358	1490.42004	1464.10376	739.26367	1473.14795	1487.22913	795.71448	1422.22852	1452.32703	763.90381	1450.36658	1561.53821	795.88123	1470.41357	1493.77283	-160.49771	1556.95862	1432.19983	-339.03363	1511.89771	1410.81018	-441.89828	1498.02222	1396.16809	-591.30054	1485.60840	1439.10315	-707.57379	1472.99817	1451.46899	-774.43561	1426.59668	1429.08948	-751.39557	1470.05811	1528.07031	-780.80945	1477.72668	1463.08728	213.69205	737.88721	1464.50916	202.94730	578.44617	1414.64661	225.52524	336.82733	1346.73901	200.91980	147.67015	1338.74292	133.34808	51.08401	1269.96277	222.52571	54.95928	1444.03418	173.29378	46.42921	1542.68555	-255.46585	777.64349	1451.97058	-247.78851	551.72400	1427.25342	-270.40128	403.42145	1371.62195	-247.90723	151.56590	1349.52295	-174.03430	51.51772	1263.09412	-277.11044	53.61060	1437.36987	-222.28766	54.61457	1528.86523	-10.22225	1780.70618	1470.76636	56.52241	1712.04333	1598.51050	78.02406	1657.44812	1419.36584	-65.16231	1699.30273	1584.75940	-70.67213	1638.44128	1410.92334	
36	0.292	15.14735	1103.01099	1283.89160	108.06454	1009.96594	1561.31873	110.65401	1070.17773	1283.99902	-161.48245	1031.16650	1529.07361	-112.66972	1070.12012	1267.61243	21.05078	1278.22803	1276.98901	22.92066	1412.49316	1283.44299	13.71504	1531.27844	1337.32629	-64.83518	1199.05884	1276.50562	151.30254	1356.08240	1287.79211	22.23912	1376.68237	1593.99341	-26.64687	1402.53247	1581.82617	104.91012	1450.76611	1567.92810	-97.01355	1452.56628	1558.57825	171.29958	1543.77417	1402.13379	343.13373	1519.28271	1440.36731	495.90851	1497.36462	1411.77332	603.36365	1490.33960	1464.31067	739.25226	1473.12000	1487.28845	795.74506	1422.18127	1452.35999	763.79926	1450.32178	1561.63647	795.83044	1470.36243	1493.89661	-160.64951	1556.99500	1432.19470	-339.09384	1511.79126	1410.92712	-441.96951	1497.92566	1396.30933	-591.44208	1485.46021	1439.32617	-707.56036	1472.86218	1451.74353	-774.40564	1426.53662	1429.40137	-751.40344	1469.59473	1527.96484	-781.01184	1477.52502	1463.40601	213.78479	737.87244	1464.62122	202.93936	578.40881	1414.69727	225.45493	337.02136	1346.87952	200.98015	147.53745	1339.19922	133.25522	51.06041	1269.94983	222.49646	55.00807	1443.99377	173.29378	46.42921	1542.68555	-255.05821	777.39728	1452.47620	-247.73997	551.69452	1427.27576	-270.52423	403.36465	1371.73474	-247.95764	151.74210	1349.65369	-174.09866	51.53801	1263.18018	-277.18756	53.51971	1437.41516	-222.28766	54.61457	1528.86523	-10.25692	1780.61877	1470.82739	56.37840	1711.95447	1598.73230	78.05777	1657.39819	1419.65796	-65.27342	1699.33228	1585.00183	-70.77895	1638.59912	1411.09778	
